<?xml version="1.0" encoding="UTF-8"?>
<svg xmlns="http://www.w3.org/2000/svg" xmlns:xlink="http://www.w3.org/1999/xlink" width="17pt" height="17pt" viewBox="0 0 17 17" version="1.1">
<g id="surface1">
<path style=" stroke:none;fill-rule:nonzero;fill:rgb(100%,95.686275%,54.117647%);fill-opacity:1;" d="M 16.824219 2.039062 L 16.824219 14.785156 L 8.410156 14.128906 L 0 14.785156 L 0 2.039062 L 8.410156 2.695312 Z M 16.824219 2.039062 "/>
<path style=" stroke:none;fill-rule:nonzero;fill:rgb(98.823529%,82.745098%,43.921569%);fill-opacity:1;" d="M 16.824219 2.039062 L 16.824219 14.785156 L 8.410156 14.128906 L 8.410156 2.695312 Z M 16.824219 2.039062 "/>
<path style=" stroke:none;fill-rule:nonzero;fill:rgb(100%,89.019608%,43.921569%);fill-opacity:1;" d="M 16.824219 14.785156 L 0 14.785156 L 6.210938 6.746094 L 10.609375 6.746094 Z M 16.824219 14.785156 "/>
<path style=" stroke:none;fill-rule:nonzero;fill:rgb(97.647059%,76.470588%,42.745098%);fill-opacity:1;" d="M 16.824219 14.785156 L 8.410156 14.785156 L 8.410156 6.746094 L 10.609375 6.746094 Z M 16.824219 14.785156 "/>
<path style=" stroke:none;fill-rule:nonzero;fill:rgb(98.823529%,82.745098%,43.921569%);fill-opacity:1;" d="M 16.824219 2.039062 L 8.410156 9.398438 L 0 2.039062 Z M 16.824219 2.039062 "/>
<path style=" stroke:none;fill-rule:nonzero;fill:rgb(100%,72.156863%,35.294118%);fill-opacity:1;" d="M 16.824219 2.039062 L 8.410156 9.398438 L 8.410156 2.039062 Z M 16.824219 2.039062 "/>
</g>
</svg>
