<?xml version="1.0" encoding="UTF-8"?>
<svg xmlns="http://www.w3.org/2000/svg" xmlns:xlink="http://www.w3.org/1999/xlink" width="17pt" height="17pt" viewBox="0 0 17 17" version="1.1">
<g id="surface1">
<path style=" stroke:none;fill-rule:nonzero;fill:rgb(99.607843%,84.705882%,26.27451%);fill-opacity:1;" d="M 13.1875 1.007812 L 9.289062 1.007812 C 7.410156 1.007812 5.847656 2.539062 5.847656 4.417969 C 5.847656 6.132812 7.152344 7.558594 8.800781 7.792969 L 8.800781 9.289062 C 8.800781 9.488281 8.921875 9.664062 9.101562 9.742188 C 9.28125 9.8125 9.496094 9.773438 9.632812 9.632812 L 11.238281 8.03125 L 11.441406 7.828125 L 13.1875 7.828125 C 15.066406 7.828125 16.628906 6.296875 16.628906 4.417969 C 16.628906 2.539062 15.066406 1.007812 13.1875 1.007812 Z M 13.1875 1.007812 "/>
<path style=" stroke:none;fill-rule:nonzero;fill:rgb(98.039216%,74.509804%,17.254902%);fill-opacity:1;" d="M 13.1875 7.828125 C 15.066406 7.828125 16.628906 6.296875 16.628906 4.417969 C 16.628906 2.539062 15.066406 1.007812 13.1875 1.007812 L 11.238281 1.007812 L 11.238281 8.03125 L 11.441406 7.828125 Z M 13.1875 7.828125 "/>
<path style=" stroke:none;fill-rule:nonzero;fill:rgb(100%,39.215686%,10.196078%);fill-opacity:1;" d="M 12.40625 12.214844 L 12.40625 14.160156 C 12.40625 15.011719 11.714844 15.625 10.953125 15.625 C 8.144531 15.625 5.40625 14.296875 3.371094 12.265625 C 1.335938 10.238281 0 7.511719 0 4.703125 C 0 3.898438 0.65625 3.25 1.460938 3.25 L 3.410156 3.25 C 3.621094 3.25 3.808594 3.382812 3.871094 3.582031 L 4.847656 6.496094 C 4.894531 6.640625 4.871094 6.796875 4.789062 6.921875 L 3.960938 8.164062 C 4.277344 8.820312 4.832031 9.535156 5.472656 10.171875 C 6.109375 10.800781 6.835938 11.347656 7.492188 11.660156 L 8.734375 10.835938 C 8.859375 10.75 9.015625 10.730469 9.160156 10.777344 L 12.082031 11.75 C 12.28125 11.816406 12.40625 12.003906 12.40625 12.214844 Z M 12.40625 12.214844 "/>
<path style=" stroke:none;fill-rule:nonzero;fill:rgb(94.117647%,21.960784%,0%);fill-opacity:1;" d="M 12.40625 12.214844 L 12.40625 14.160156 C 12.40625 15.011719 11.714844 15.625 10.953125 15.625 C 8.144531 15.625 5.40625 14.296875 3.371094 12.265625 L 5.472656 10.171875 C 6.109375 10.800781 6.835938 11.347656 7.492188 11.660156 L 8.734375 10.835938 C 8.859375 10.75 9.015625 10.730469 9.160156 10.777344 L 12.082031 11.75 C 12.28125 11.816406 12.40625 12.003906 12.40625 12.214844 Z M 12.40625 12.214844 "/>
<path style=" stroke:none;fill-rule:nonzero;fill:rgb(38.039216%,23.921569%,36.078431%);fill-opacity:1;" d="M 9.777344 4.417969 C 9.777344 4.6875 9.558594 4.90625 9.289062 4.90625 C 9.019531 4.90625 8.800781 4.6875 8.800781 4.417969 C 8.800781 4.148438 9.019531 3.929688 9.289062 3.929688 C 9.558594 3.929688 9.777344 4.148438 9.777344 4.417969 Z M 9.777344 4.417969 "/>
<path style=" stroke:none;fill-rule:nonzero;fill:rgb(38.039216%,23.921569%,36.078431%);fill-opacity:1;" d="M 11.726562 4.417969 C 11.726562 4.6875 11.507812 4.90625 11.238281 4.90625 C 10.96875 4.90625 10.75 4.6875 10.75 4.417969 C 10.75 4.148438 10.96875 3.929688 11.238281 3.929688 C 11.507812 3.929688 11.726562 4.148438 11.726562 4.417969 Z M 11.726562 4.417969 "/>
<path style=" stroke:none;fill-rule:nonzero;fill:rgb(29.411765%,15.294118%,27.45098%);fill-opacity:1;" d="M 11.726562 4.417969 C 11.726562 4.148438 11.507812 3.929688 11.238281 3.929688 L 11.238281 4.90625 C 11.507812 4.90625 11.726562 4.6875 11.726562 4.417969 Z M 11.726562 4.417969 "/>
<path style=" stroke:none;fill-rule:nonzero;fill:rgb(29.411765%,15.294118%,27.45098%);fill-opacity:1;" d="M 13.675781 4.417969 C 13.675781 4.6875 13.457031 4.90625 13.1875 4.90625 C 12.917969 4.90625 12.699219 4.6875 12.699219 4.417969 C 12.699219 4.148438 12.917969 3.929688 13.1875 3.929688 C 13.457031 3.929688 13.675781 4.148438 13.675781 4.417969 Z M 13.675781 4.417969 "/>
</g>
</svg>
